<svg width="1715.325195" height="2279.439453" viewBox="0 0 1715.33 2279.44" fill="none" xmlns="http://www.w3.org/2000/svg" xmlns:xlink="http://www.w3.org/1999/xlink">
	<desc>
			Created with Pixso.
	</desc>
	<defs/>
	<path id="Vector" d="M0.0546875 1841.35C4.35864 1743.46 29.053 1649.13 52.6184 1554.86C113.983 1312.13 194.188 1074.56 292.507 844.304C371.67 658.003 490.591 502.606 647.118 373.243C778.951 264.306 908.667 153.429 1061.74 74.4071C1136.6 35.6019 1215.05 7.83846 1299.58 1.31211C1454.02 -10.647 1560.88 59.5906 1631.54 193.716C1727.07 375.113 1740.9 563.107 1673.06 755.016C1628.37 882.608 1592.33 1013.07 1565.18 1145.5C1549.73 1219.9 1517.49 1287.78 1460.55 1339.53C1359.2 1431.96 1279.86 1540.61 1215.76 1660.91C1146.12 1791.86 1048.37 1898.61 928.352 1984.3C793.45 2080.64 657.807 2176.74 496.447 2225.95C385.534 2259.78 269.788 2263.69 155.912 2278.86C129.771 2282.39 117.106 2269.48 115.413 2245.95C109.31 2158.22 76.6074 2079.65 37.3787 2002.29C11.8718 1952.54 -0.949219 1897.25 0.0546875 1841.35Z" fill="#FFC64F" fill-opacity="1.000000" fill-rule="nonzero"/>
</svg>
