<svg width="1079.264160" height="1713.625244" viewBox="0 0 1079.26 1713.63" fill="none" xmlns="http://www.w3.org/2000/svg" xmlns:xlink="http://www.w3.org/1999/xlink">
	<desc>
			Created with Pixso.
	</desc>
	<defs/>
	<path id="Vector" d="M1078.45 1115.17C1082.58 1228.3 1071.68 1338.4 1030.93 1443.88C975.05 1588.52 868.652 1674.74 718.017 1702.99C433.678 1756.3 116.285 1608.73 27.103 1269.72C-3.05908 1155.1 -4.64697 1038.01 5.93652 920.468C18.5308 779.358 54.3726 644.457 107.712 513.895C172.376 355.499 285.794 239.824 429.375 151.136C475.235 122.703 522.014 95.2567 567.769 66.4702C584.948 55.4771 601.185 43.0756 616.311 29.3935C660.796 -10.4701 662.63 -10.9286 698.579 35.0379C864.384 247.021 978.26 484.191 1038.34 746.127C1066.28 867.446 1082.86 990.953 1078.45 1115.17Z" fill="#008C4C" fill-opacity="1.000000" fill-rule="nonzero"/>
</svg>
