<svg width="24.851074" height="24.750000" viewBox="0 0 24.8511 24.75" fill="none" xmlns="http://www.w3.org/2000/svg" xmlns:xlink="http://www.w3.org/1999/xlink">
	<desc>
			Created with Pixso.
	</desc>
	<defs/>
	<path id="Vector" d="M12.4258 14.55C11.2212 14.55 10.2422 13.575 10.2422 12.375C10.2422 11.175 11.2124 10.2 12.4258 10.2C13.6226 10.2 14.6099 11.175 14.6099 12.375C14.6099 13.575 13.6309 14.55 12.4258 14.55ZM12.4258 9.04999C10.585 9.04999 9.0957 10.5333 9.0957 12.375C9.0957 14.2083 10.5933 15.7 12.4258 15.7C14.2666 15.7 15.7646 14.2083 15.7646 12.375C15.7646 10.5417 14.2666 9.04999 12.4258 9.04999Z" fill="#FFFFFF" fill-opacity="1.000000" fill-rule="nonzero"/>
	<path id="Vector" d="M16.0991 7.84167C15.6724 7.84167 15.3291 8.18335 15.3291 8.60834C15.3291 9.03336 15.6724 9.375 16.0991 9.375C16.5254 9.375 16.8687 9.03336 16.8687 8.60834C16.8687 8.18335 16.5254 7.84167 16.0991 7.84167Z" fill="#FFFFFF" fill-opacity="1.000000" fill-rule="nonzero"/>
	<path id="Vector" d="M18.8433 15.0917C18.8433 17.1083 17.1865 18.7583 15.145 18.7583L9.70605 18.7583C7.66455 18.7583 6.00781 17.1083 6.00781 15.1L6.00781 9.64166C6.00781 7.625 7.66455 5.97501 9.70605 5.97501L15.145 5.97501C17.1865 5.97501 18.8433 7.625 18.8433 9.64166L18.8433 15.0917ZM12.4253 0C5.56445 0 0 5.54166 0 12.375C0 19.2083 5.56445 24.75 12.4253 24.75C19.2866 24.75 24.8511 19.2083 24.8511 12.375C24.8511 5.54166 19.2866 0 12.4253 0Z" fill="#FFFFFF" fill-opacity="1.000000" fill-rule="nonzero"/>
</svg>
