<svg width="2122.441162" height="1973.726440" viewBox="0 0 2122.44 1973.73" fill="none" xmlns="http://www.w3.org/2000/svg" xmlns:xlink="http://www.w3.org/1999/xlink">
	<desc>
			Created with Pixso.
	</desc>
	<defs/>
	<path id="Vector" d="M1641.77 400.716C1713.03 422.659 1783.2 428.691 1851.74 442.626C1915.24 455.537 1977.68 471.588 2030.67 511.276C2077.45 546.271 2112.62 589.839 2119.15 650.163C2126.45 716.661 2079.6 757.936 2013.84 745.413C1938.49 731.302 1875.73 691.332 1814.1 648.54C1782.53 626.563 1751.24 604.126 1719.84 581.901C1699.31 567.332 1677.51 555.549 1652.04 552.692C1637.64 551.069 1624.1 553.256 1617.32 567.826C1610.27 583.101 1615.21 597 1627.27 607.583C1645.4 623.564 1667.77 632.031 1690.21 640.003C1733.81 655.561 1779.25 666.461 1819.64 690.203C1936.06 758.571 1993.56 858.442 1981.92 994.613C1973.13 1096.53 1900.04 1136.92 1809.06 1090.39C1745.56 1057.79 1695.78 1008.23 1649.42 955.137C1598.77 897.106 1551.74 836.041 1495.01 783.512C1475.51 765.485 1454.8 750.704 1427.42 747.529C1389.85 743.155 1374.19 760.688 1383.47 797.729C1390.03 823.764 1405.97 844.26 1423.26 863.945C1468.59 915.591 1525.85 952.809 1580.7 992.673C1669.85 1057.51 1728.52 1141.4 1747.5 1250.76C1757.09 1306.08 1752.68 1359.59 1712.47 1403.76C1671.23 1448.99 1624.62 1452.44 1577.78 1413.32C1539.78 1381.57 1513.32 1340.58 1491.31 1296.91C1421.74 1158.72 1338.2 1030.17 1231.6 917.355C1193.78 877.35 1176.17 872.412 1149.47 894.39C1118.21 920.177 1117.9 957.889 1146.26 996.694C1237.98 1122.88 1329.39 1249.53 1401.32 1388.73C1450.71 1484.65 1486.55 1583.71 1472.26 1694.34C1464.64 1753.15 1439.49 1802.19 1389.68 1836.44C1346.25 1866.29 1302.86 1859.9 1269.38 1819.54C1241.16 1785.68 1226.3 1745.46 1214.13 1704.08C1142.91 1462.92 1053.76 1229.03 933.288 1007.67C929.513 1000.61 925.95 993.555 922.316 986.499C911.345 965.333 892.895 952.351 870.211 956.972C847.528 961.593 846.646 984.488 845.27 1003.93C841.742 1052.75 854.76 1098.47 875.22 1141.72C922.916 1242.44 961.228 1345.62 972.234 1457.6C986.345 1601.88 960.31 1737.06 881.677 1860.01C857.582 1897.68 828.301 1936.84 776.126 1923.51C727.866 1911.09 723.209 1864.45 720.74 1824.13C714.954 1735.93 714.778 1647.74 708.957 1559.55C702.289 1458.02 695.163 1356.35 674.279 1256.37C671.165 1239.69 666.838 1223.25 661.332 1207.2C644.116 1160.31 591.906 1149.52 558.392 1186.66C504.523 1246.35 488.683 1318.78 489.318 1397.27C490.129 1492.91 515.318 1585.41 523.043 1680.13C529.252 1756.64 527.771 1832.07 492.669 1902.37C470.585 1946.58 437.248 1976.46 383.309 1973.53C370.468 1972.82 358.191 1970.21 348.031 1962.95C223.007 1872.42 121.266 1764.3 89.657 1606.64C68.2434 1499.86 100.699 1402.95 152.91 1311.44C222.16 1190.05 320.126 1092.4 418.304 995.142C440.238 973.813 459.78 950.155 476.583 924.587C482.439 915.521 491.011 904.655 479.758 894.143C470.127 885.147 457.25 887.087 448.008 893.684C421.808 911.474 396.572 930.645 372.408 951.116C295.15 1018.43 225.935 1092.47 180.003 1185.75C169.201 1206.96 156.32 1227.05 141.551 1245.72C114.316 1281 86.5173 1291.3 53.8503 1281C22.312 1271.05 4.46143 1243.78 0.933594 1201.94C-6.40405 1116.39 30.2141 1048.2 85.9177 987.981C143.491 925.681 215.775 882.96 287 838.616C332.121 810.394 376.147 780.584 420.209 750.881C435.52 740.58 451.712 727.527 441.376 706.572C431.463 686.287 410.931 689.18 393.292 694.295C325.418 713.839 274.724 758.465 228.828 809.547C203.886 837.346 180.285 866.52 153.933 892.873C118.232 928.573 79.4619 935.805 46.8301 916.262C17.2673 898.623 2.66235 853.715 14.4451 809.9C33.6714 738.357 86.5527 693.66 144.972 655.42C247.948 587.969 363.694 553.573 483.638 531.948C521.562 525.069 559.556 518.719 595.186 503.938C614.977 495.754 636.426 485.064 635.156 458.889C633.957 433.277 612.79 422.341 592.258 416.132C525.548 395.707 460.284 397.894 400.348 438.004C380.627 451.198 362.918 467.32 344.115 481.854C326.159 495.754 307.603 508.03 284.99 514.027C221.49 530.819 173.371 489.333 187.2 425.834C211.894 312.028 388.777 146.224 550.207 191.626C593.976 203.972 633.882 227.258 666.165 259.288C682.428 275.128 698.832 291.038 719.082 301.621C735.909 310.617 754.359 313.863 769.705 299.505C784.416 285.711 775.279 269.519 768.612 255.584C755.77 228.844 739.437 203.832 714.495 186.969C648.491 142.379 671.033 73.3759 723.597 40.3208C781.064 4.19666 843.541 -5.75159 909.299 2.96198C949.649 8.61725 989.114 19.3932 1026.74 35.0292C1118.74 72.5292 1179.03 137.722 1206.65 233.465C1215.52 266.168 1226.52 298.256 1239.57 329.526C1269.55 398.635 1329.28 417.543 1395.71 381.278C1425.94 364.803 1449.65 340.427 1473.57 316.367C1549.13 240.556 1629.14 170.036 1731.8 133.489C1845.6 92.9196 1954.75 97.5057 2049.61 182.56C2095.69 223.87 2117.59 278.197 2122 338.875C2127.26 410.453 2084.72 445.871 2013.53 431.231C1960.11 420.224 1911.78 393.907 1859.43 379.338C1808.81 365.227 1758.36 354.89 1705.62 366.638C1682.94 371.718 1663.61 382.054 1641.77 400.716Z" fill="#375A44" fill-opacity="1.000000" fill-rule="nonzero"/>
</svg>
