<svg width="25.102051" height="25.000000" viewBox="0 0 25.1021 25" fill="none" xmlns="http://www.w3.org/2000/svg" xmlns:xlink="http://www.w3.org/1999/xlink">
	<desc>
			Created with Pixso.
	</desc>
	<defs/>
	<path id="Vector" d="M19.6216 5.79166L16.8184 18.9167C16.7764 19.1667 16.4839 19.2917 16.2324 19.1667L11.9233 16.2917L9.62256 18.4583C9.41309 18.625 9.12061 18.5417 9.03662 18.2917L7.53076 13.625L3.55615 12C3.26318 11.875 3.26318 11.375 3.55615 11.25L19.0776 5.375C19.3706 5.29166 19.6631 5.5 19.6216 5.79166ZM12.5508 0C5.60596 0 0 5.58334 0 12.5C0 19.4167 5.60596 25 12.5508 25C19.4961 25 25.1021 19.4167 25.1021 12.5C25.1021 5.58334 19.4961 0 12.5508 0Z" fill="#FFFFFF" fill-opacity="1.000000" fill-rule="nonzero"/>
	<path id="Vector" d="M9.49707 16.9167L9.74805 14.5L16.7769 7.70834L8.32568 13.25L9.49707 16.9167Z" fill="#FFFFFF" fill-opacity="1.000000" fill-rule="nonzero"/>
</svg>
