<svg width="24.851074" height="24.750000" viewBox="0 0 24.8511 24.75" fill="none" xmlns="http://www.w3.org/2000/svg" xmlns:xlink="http://www.w3.org/1999/xlink">
	<desc>
			Created with Pixso.
	</desc>
	<defs/>
	<path id="Vector" d="M18.3159 14.975C16.9438 13.7083 17.1279 13.9083 18.7847 11.7167C19.7886 10.3833 20.1904 9.56668 20.0649 9.21667C19.9478 8.88333 19.2031 8.97501 19.2031 8.97501L16.7432 8.99167C16.7432 8.99167 16.5591 8.96667 16.4253 9.04999C16.291 9.125 16.2075 9.31668 16.2075 9.31668C16.2075 9.31668 15.8228 10.35 15.3037 11.225C14.2075 13.075 13.7725 13.175 13.5884 13.0583C13.1704 12.7917 13.2788 11.9833 13.2788 11.4083C13.2788 9.60834 13.5552 8.86667 12.7437 8.66666C12.4756 8.60001 12.2749 8.55832 11.5972 8.54999C10.7188 8.54166 9.97412 8.54999 9.55566 8.75833C9.2793 8.89999 9.06201 9.20001 9.1875 9.21667C9.34619 9.24167 9.72266 9.31668 9.91553 9.58334C10.1665 9.92499 10.1582 10.6917 10.1582 10.6917C10.1582 10.6917 10.3086 12.8 9.82324 13.0667C9.48877 13.25 9.03662 12.8833 8.05762 11.2C7.55566 10.3417 7.1792 9.39166 7.1792 9.39166C7.1792 9.39166 7.104 9.21667 6.97852 9.11667C6.81934 9 6.60205 8.95834 6.60205 8.95834L4.26758 8.96667C4.26758 8.96667 3.91602 8.96667 3.79053 9.11667C3.67334 9.25 3.78223 9.50833 3.78223 9.50833C3.78223 9.50833 5.61426 13.725 7.68115 15.875C9.58057 17.8417 11.7393 17.625 11.7393 17.625L12.7183 17.625C12.7183 17.625 13.0112 17.6833 13.1616 17.525C13.3042 17.375 13.2959 17.1917 13.2959 17.1917C13.2959 17.1917 13.2788 15.8833 13.8896 15.6917C14.4922 15.5 15.2622 16.9583 16.082 17.5083C16.7012 17.9333 17.1699 17.8417 17.1699 17.8417L19.3535 17.8083C19.3535 17.8083 20.5 17.7417 19.9561 16.8417C19.8975 16.775 19.6216 16.1917 18.3159 14.975ZM24.8511 12.375C24.8511 19.2083 19.2866 24.75 12.4253 24.75C5.56445 24.75 0 19.2083 0 12.375C0 5.54166 5.56445 0 12.4253 0C19.2866 0 24.8511 5.54166 24.8511 12.375Z" fill="#FFFFFF" fill-opacity="1.000000" fill-rule="nonzero"/>
</svg>
